<svg width="123" height="30" viewBox="0 0 123 30" fill="none" xmlns="http://www.w3.org/2000/svg">
<path d="M61.9038 20.7229L60.9739 18.5617H54.1888L53.259 20.7229H49.6151L57.0285 3.83545H58.1594L65.5476 20.7229H61.9038ZM59.7677 15.7723L57.5814 10.1934L55.395 15.7723H59.7677Z" fill="#08235B"/>
<path d="M73.4921 4.13701C76.1726 4.13701 78.3506 4.89092 80.0259 6.39872C81.7013 7.90653 82.5389 9.90019 82.5389 12.3797C82.5389 14.8257 81.6929 16.8277 80.0008 18.3858C78.3255 19.9439 76.1559 20.7229 73.4921 20.7229H68.064V4.13701H73.4921ZM73.467 7.20289H71.4565V17.657H73.467C75.1423 17.657 76.491 17.1796 77.5129 16.2246C78.5349 15.2529 79.0459 13.9713 79.0459 12.3797C79.0459 10.7714 78.5349 9.50649 77.5129 8.58505C76.5077 7.66361 75.1591 7.20289 73.467 7.20289Z" fill="#08235B"/>
<path d="M96.8237 4.13701V7.20289H89.0584V10.5703H94.763V13.4603H89.0584V17.657H97.1252V20.7229H85.6659V4.13701H96.8237Z" fill="#08235B"/>
<path d="M103.715 4.13701V20.7229H100.323V4.13701H103.715Z" fill="#08235B"/>
<path d="M118.495 4.13701H121.888V21.0245H120.757L111.157 10.7714V20.7229H107.765V3.83545H108.87L118.495 14.0132V4.13701Z" fill="#08235B"/>
<path d="M50.8939 25.6198L50.7067 25.1797H49.6492L49.462 25.6198H49.1927L50.132 23.4162H50.2272L51.1665 25.6198H50.8939ZM50.6115 24.9498L50.178 23.8858L49.7445 24.9498H50.6115Z" fill="#08235B"/>
<path d="M52.175 23.3505C52.0677 23.3505 51.9845 23.3735 51.9254 23.4195C51.8685 23.4632 51.84 23.5421 51.84 23.6559V24.0204H52.2407V24.247H51.84V25.6198H51.5871V24.247H51.3572V24.0204H51.5871V23.6395C51.5871 23.4643 51.6342 23.3341 51.7283 23.2487C51.8247 23.1633 51.9538 23.1206 52.1159 23.1206C52.1859 23.1206 52.2527 23.1294 52.3162 23.1469V23.3603C52.2636 23.3538 52.2166 23.3505 52.175 23.3505Z" fill="#08235B"/>
<path d="M53.2743 24.0073C53.3093 24.0073 53.3487 24.0117 53.3925 24.0204V24.2438H53.2973C53.1593 24.2438 53.0411 24.2854 52.9426 24.3686C52.8441 24.4518 52.7948 24.5667 52.7948 24.7134V25.6198H52.5419V24.0204H52.7784V24.2503C52.8988 24.0883 53.0641 24.0073 53.2743 24.0073Z" fill="#08235B"/>
<path d="M53.8598 23.2257C53.9102 23.2257 53.954 23.2443 53.9912 23.2815C54.0284 23.3166 54.047 23.3592 54.047 23.4096C54.047 23.4621 54.0284 23.5059 53.9912 23.541C53.9562 23.576 53.9124 23.5935 53.8598 23.5935C53.8073 23.5935 53.7624 23.576 53.7252 23.541C53.688 23.5059 53.6694 23.4621 53.6694 23.4096C53.6694 23.3592 53.688 23.3166 53.7252 23.2815C53.7624 23.2443 53.8073 23.2257 53.8598 23.2257ZM53.9846 24.0204V25.6198H53.7318V24.0204H53.9846Z" fill="#08235B"/>
<path d="M55.2625 23.9843C55.5471 23.9843 55.7671 24.1004 55.9226 24.3324L55.7419 24.4769C55.6128 24.304 55.454 24.2175 55.2657 24.2175C55.0993 24.2175 54.9603 24.2755 54.8487 24.3915C54.7392 24.5076 54.6845 24.6499 54.6845 24.8185C54.6845 24.9892 54.7392 25.1327 54.8487 25.2487C54.9603 25.3647 55.0993 25.4227 55.2657 25.4227C55.454 25.4227 55.6117 25.3374 55.7386 25.1666L55.9193 25.3078C55.7638 25.5399 55.5449 25.6559 55.2625 25.6559C55.0282 25.6559 54.83 25.5749 54.668 25.4129C54.506 25.2509 54.425 25.0527 54.425 24.8185C54.425 24.5864 54.506 24.3894 54.668 24.2273C54.83 24.0653 55.0282 23.9843 55.2625 23.9843Z" fill="#08235B"/>
<path d="M56.9235 23.9843C57.1118 23.9843 57.2628 24.0401 57.3767 24.1518C57.4905 24.2635 57.5475 24.4244 57.5475 24.6346V25.6198H57.311V25.4129C57.1906 25.5749 57.0111 25.6559 56.7724 25.6559C56.6082 25.6559 56.4736 25.6154 56.3685 25.5344C56.2656 25.4534 56.2141 25.3439 56.2141 25.206C56.2141 25.0703 56.2667 24.9619 56.3718 24.8809C56.4768 24.7999 56.6159 24.7594 56.7888 24.7594H57.2946V24.6214C57.2946 24.4901 57.2596 24.3905 57.1895 24.3226C57.1216 24.2525 57.0275 24.2175 56.9071 24.2175C56.7275 24.2175 56.5721 24.3029 56.4407 24.4736L56.2732 24.3357C56.4199 24.1015 56.6367 23.9843 56.9235 23.9843ZM56.8053 25.4457C56.9388 25.4457 57.0537 25.403 57.1501 25.3177C57.2464 25.2323 57.2946 25.1283 57.2946 25.0057V24.9663H56.8184C56.5885 24.9663 56.4736 25.0418 56.4736 25.1929C56.4736 25.2739 56.5053 25.3363 56.5688 25.3801C56.6323 25.4238 56.7111 25.4457 56.8053 25.4457Z" fill="#08235B"/>
<path d="M59.6676 23.4523C60.0289 23.4523 60.3157 23.553 60.5281 23.7544C60.7404 23.9537 60.8466 24.2131 60.8466 24.5328C60.8466 24.8502 60.7404 25.1108 60.5281 25.3144C60.3157 25.518 60.0289 25.6198 59.6676 25.6198H59.024V23.4523H59.6676ZM59.6644 23.6822H59.2801V25.3899H59.6644C59.9468 25.3899 60.1701 25.31 60.3343 25.1502C60.4985 24.9882 60.5806 24.7824 60.5806 24.5328C60.5806 24.2788 60.4985 24.0741 60.3343 23.9186C60.1723 23.761 59.949 23.6822 59.6644 23.6822Z" fill="#08235B"/>
<path d="M61.4126 23.2257C61.4629 23.2257 61.5067 23.2443 61.544 23.2815C61.5812 23.3166 61.5998 23.3592 61.5998 23.4096C61.5998 23.4621 61.5812 23.5059 61.544 23.541C61.5089 23.576 61.4651 23.5935 61.4126 23.5935C61.36 23.5935 61.3152 23.576 61.2779 23.541C61.2407 23.5059 61.2221 23.4621 61.2221 23.4096C61.2221 23.3592 61.2407 23.3166 61.2779 23.2815C61.3152 23.2443 61.36 23.2257 61.4126 23.2257ZM61.5374 24.0204V25.6198H61.2845V24.0204H61.5374Z" fill="#08235B"/>
<path d="M63.3899 24.0204H63.6297V25.4654C63.6297 25.7085 63.5585 25.8989 63.4162 26.0369C63.2761 26.177 63.0878 26.2471 62.8513 26.2471C62.5558 26.2471 62.3051 26.1442 62.0993 25.9383L62.2471 25.761C62.4397 25.9296 62.639 26.0139 62.8448 26.0139C63.0111 26.0139 63.1414 25.9679 63.2356 25.876C63.3297 25.784 63.3768 25.6515 63.3768 25.4786V25.3374C63.3111 25.4206 63.2257 25.4862 63.1206 25.5344C63.0155 25.5804 62.9028 25.6034 62.7824 25.6034C62.5569 25.6034 62.3697 25.5267 62.2208 25.3735C62.0719 25.2202 61.9975 25.0276 61.9975 24.7955C61.9975 24.5634 62.0719 24.3707 62.2208 24.2175C62.3697 24.062 62.5569 23.9843 62.7824 23.9843C62.9093 23.9843 63.0265 24.0106 63.1338 24.0631C63.2432 24.1157 63.3286 24.1879 63.3899 24.2799V24.0204ZM62.8218 25.3702C62.975 25.3702 63.1064 25.322 63.2159 25.2257C63.3253 25.1272 63.3801 24.9838 63.3801 24.7955C63.3801 24.6072 63.3253 24.4649 63.2159 24.3686C63.1064 24.2722 62.975 24.2241 62.8218 24.2241C62.6576 24.2241 62.5218 24.2777 62.4145 24.385C62.3073 24.4923 62.2536 24.6302 62.2536 24.7988C62.2536 24.9674 62.3073 25.1053 62.4145 25.2126C62.5218 25.3177 62.6576 25.3702 62.8218 25.3702Z" fill="#08235B"/>
<path d="M64.3118 23.2257C64.3622 23.2257 64.406 23.2443 64.4432 23.2815C64.4804 23.3166 64.499 23.3592 64.499 23.4096C64.499 23.4621 64.4804 23.5059 64.4432 23.541C64.4082 23.576 64.3644 23.5935 64.3118 23.5935C64.2593 23.5935 64.2144 23.576 64.1772 23.541C64.14 23.5059 64.1213 23.4621 64.1213 23.4096C64.1213 23.3592 64.14 23.3166 64.1772 23.2815C64.2144 23.2443 64.2593 23.2257 64.3118 23.2257ZM64.4366 24.0204V25.6198H64.1837V24.0204H64.4366Z" fill="#08235B"/>
<path d="M65.652 25.426C65.7133 25.426 65.7845 25.4195 65.8655 25.4063V25.6198C65.7648 25.6439 65.6761 25.6559 65.5995 25.6559C65.4331 25.6559 65.3017 25.6132 65.2054 25.5278C65.1091 25.4425 65.0609 25.3122 65.0609 25.137V24.247H64.7916V24.0204H65.0609V23.5837H65.3138V24.0204H65.813V24.247H65.3138V25.1206C65.3138 25.2345 65.3422 25.3144 65.3992 25.3603C65.4583 25.4041 65.5426 25.426 65.652 25.426Z" fill="#08235B"/>
<path d="M66.8174 23.9843C67.0057 23.9843 67.1568 24.0401 67.2706 24.1518C67.3845 24.2635 67.4414 24.4244 67.4414 24.6346V25.6198H67.2049V25.4129C67.0845 25.5749 66.905 25.6559 66.6664 25.6559C66.5021 25.6559 66.3675 25.6154 66.2624 25.5344C66.1595 25.4534 66.1081 25.3439 66.1081 25.206C66.1081 25.0703 66.1606 24.9619 66.2657 24.8809C66.3708 24.7999 66.5098 24.7594 66.6828 24.7594H67.1885V24.6214C67.1885 24.4901 67.1535 24.3905 67.0834 24.3226C67.0156 24.2525 66.9214 24.2175 66.801 24.2175C66.6215 24.2175 66.466 24.3029 66.3347 24.4736L66.1672 24.3357C66.3139 24.1015 66.5306 23.9843 66.8174 23.9843ZM66.6992 25.4457C66.8327 25.4457 66.9477 25.403 67.044 25.3177C67.1404 25.2323 67.1885 25.1283 67.1885 25.0057V24.9663H66.7123C66.4824 24.9663 66.3675 25.0418 66.3675 25.1929C66.3675 25.2739 66.3992 25.3363 66.4627 25.3801C66.5262 25.4238 66.605 25.4457 66.6992 25.4457Z" fill="#08235B"/>
<path d="M68.2306 23.1567V25.6198H67.9778V23.1567H68.2306Z" fill="#08235B"/>
<path d="M71.1153 23.4523V23.6822H69.9822V24.3456H70.8492V24.5755H69.9822V25.3899H71.1547V25.6198H69.7261V23.4523H71.1153Z" fill="#08235B"/>
<path d="M72.4072 23.9843C72.6349 23.9843 72.8232 24.0642 72.9721 24.2241C73.1232 24.3839 73.1987 24.582 73.1987 24.8185C73.1987 25.0571 73.1232 25.2564 72.9721 25.4162C72.8232 25.576 72.6349 25.6559 72.4072 25.6559C72.289 25.6559 72.1773 25.6329 72.0723 25.587C71.9672 25.5388 71.8829 25.472 71.8194 25.3866V26.2109H71.5665V24.0204H71.803V24.2766C71.8643 24.1846 71.9486 24.1135 72.0558 24.0631C72.1631 24.0106 72.2803 23.9843 72.4072 23.9843ZM72.3711 25.4227C72.5331 25.4227 72.6678 25.3658 72.7751 25.252C72.8845 25.1381 72.9393 24.9947 72.9393 24.8218C72.9393 24.6466 72.8856 24.5021 72.7783 24.3883C72.6711 24.2744 72.5353 24.2175 72.3711 24.2175C72.2179 24.2175 72.0865 24.2689 71.977 24.3718C71.8697 24.4726 71.8161 24.6214 71.8161 24.8185C71.8161 25.0155 71.8697 25.1655 71.977 25.2684C72.0865 25.3713 72.2179 25.4227 72.3711 25.4227Z" fill="#08235B"/>
<path d="M73.7696 23.2257C73.8199 23.2257 73.8637 23.2443 73.901 23.2815C73.9382 23.3166 73.9568 23.3592 73.9568 23.4096C73.9568 23.4621 73.9382 23.5059 73.901 23.541C73.8659 23.576 73.8221 23.5935 73.7696 23.5935C73.717 23.5935 73.6722 23.576 73.6349 23.541C73.5977 23.5059 73.5791 23.4621 73.5791 23.4096C73.5791 23.3592 73.5977 23.3166 73.6349 23.2815C73.6722 23.2443 73.717 23.2257 73.7696 23.2257ZM73.8944 24.0204V25.6198H73.6415V24.0204H73.8944Z" fill="#08235B"/>
<path d="M75.7174 23.1567H75.9702V25.6198H75.7305V25.3636C75.6692 25.4556 75.5849 25.5278 75.4776 25.5804C75.3703 25.6307 75.2532 25.6559 75.1262 25.6559C74.8985 25.6559 74.7091 25.576 74.5581 25.4162C74.4092 25.2564 74.3348 25.0582 74.3348 24.8218C74.3348 24.5831 74.4092 24.3839 74.5581 24.2241C74.7091 24.0642 74.8985 23.9843 75.1262 23.9843C75.2466 23.9843 75.3594 24.0084 75.4645 24.0566C75.5696 24.1047 75.6539 24.1715 75.7174 24.2569V23.1567ZM75.1623 25.4227C75.3156 25.4227 75.447 25.3724 75.5564 25.2717C75.6659 25.1688 75.7206 25.0188 75.7206 24.8218C75.7206 24.6247 75.6659 24.4747 75.5564 24.3718C75.447 24.2689 75.3156 24.2175 75.1623 24.2175C75.0003 24.2175 74.8646 24.2744 74.7551 24.3883C74.6478 24.5021 74.5942 24.6455 74.5942 24.8185C74.5942 24.9936 74.6478 25.1381 74.7551 25.252C74.8624 25.3658 74.9981 25.4227 75.1623 25.4227Z" fill="#08235B"/>
<path d="M77.9566 24.7068C77.9566 24.7747 77.95 24.8382 77.9369 24.8973H76.6758C76.6911 25.0549 76.7524 25.1819 76.8597 25.2782C76.9692 25.3746 77.1027 25.4227 77.2603 25.4227C77.4421 25.4227 77.6052 25.3505 77.7497 25.206L77.8974 25.3768C77.7223 25.5629 77.5088 25.6559 77.2571 25.6559C77.0162 25.6559 76.8148 25.576 76.6528 25.4162C76.4908 25.2564 76.4098 25.0582 76.4098 24.8218C76.4098 24.5875 76.4886 24.3894 76.6462 24.2273C76.8039 24.0653 76.9976 23.9843 77.2275 23.9843C77.4355 23.9843 77.6085 24.0522 77.7464 24.1879C77.8865 24.3237 77.9566 24.4966 77.9566 24.7068ZM77.5559 24.339C77.4661 24.2558 77.3545 24.2142 77.2209 24.2142C77.0874 24.2142 76.9713 24.2569 76.8728 24.3423C76.7743 24.4255 76.7119 24.536 76.6856 24.674H77.6971C77.6949 24.5317 77.6479 24.42 77.5559 24.339Z" fill="#08235B"/>
<path d="M79.1332 24.0073C79.1682 24.0073 79.2077 24.0117 79.2514 24.0204V24.2438H79.1562C79.0183 24.2438 78.9 24.2854 78.8015 24.3686C78.703 24.4518 78.6537 24.5667 78.6537 24.7134V25.6198H78.4009V24.0204H78.6373V24.2503C78.7577 24.0883 78.923 24.0073 79.1332 24.0073Z" fill="#08235B"/>
<path d="M81.3444 23.9843C81.5283 23.9843 81.6706 24.0423 81.7713 24.1584C81.8742 24.2722 81.9257 24.4244 81.9257 24.6149V25.6198H81.6728V24.6477C81.6728 24.5185 81.6389 24.4145 81.571 24.3357C81.5053 24.2569 81.4134 24.2175 81.2951 24.2175C81.1747 24.2175 81.0762 24.2569 80.9996 24.3357C80.9229 24.4145 80.8846 24.5109 80.8846 24.6247V25.6198H80.6318V24.6477C80.6318 24.5185 80.5967 24.4145 80.5267 24.3357C80.4588 24.2569 80.3668 24.2175 80.2508 24.2175C80.1304 24.2175 80.0319 24.258 79.9552 24.339C79.8808 24.4178 79.8436 24.5207 79.8436 24.6477V25.6198H79.5907V24.0204H79.8272V24.1879C79.9454 24.0522 80.1041 23.9843 80.3033 23.9843C80.5354 23.9843 80.6996 24.0763 80.796 24.2602C80.9229 24.0763 81.1058 23.9843 81.3444 23.9843Z" fill="#08235B"/>
<path d="M82.5891 23.2257C82.6395 23.2257 82.6833 23.2443 82.7205 23.2815C82.7577 23.3166 82.7763 23.3592 82.7763 23.4096C82.7763 23.4621 82.7577 23.5059 82.7205 23.541C82.6855 23.576 82.6417 23.5935 82.5891 23.5935C82.5366 23.5935 82.4917 23.576 82.4545 23.541C82.4173 23.5059 82.3987 23.4621 82.3987 23.4096C82.3987 23.3592 82.4173 23.3166 82.4545 23.2815C82.4917 23.2443 82.5366 23.2257 82.5891 23.2257ZM82.7139 24.0204V25.6198H82.4611V24.0204H82.7139Z" fill="#08235B"/>
<path d="M83.9918 23.9843C84.2238 23.9843 84.4209 24.0653 84.5829 24.2273C84.7471 24.3872 84.8292 24.5842 84.8292 24.8185C84.8292 25.0506 84.7471 25.2476 84.5829 25.4096C84.4209 25.5716 84.2227 25.6526 83.9885 25.6526C83.7564 25.6504 83.5594 25.5694 83.3973 25.4096C83.2353 25.2498 83.1543 25.0527 83.1543 24.8185C83.1543 24.5842 83.2353 24.3872 83.3973 24.2273C83.5594 24.0653 83.7575 23.9843 83.9918 23.9843ZM83.9918 24.2175C83.8254 24.2175 83.6863 24.2755 83.5747 24.3915C83.4652 24.5076 83.4116 24.651 83.4138 24.8218C83.4138 24.9925 83.4685 25.1348 83.578 25.2487C83.6874 25.3625 83.8243 25.4195 83.9885 25.4195C84.1527 25.4195 84.2906 25.3625 84.4023 25.2487C84.5139 25.1327 84.5698 24.9903 84.5698 24.8218C84.5698 24.6488 84.5139 24.5054 84.4023 24.3915C84.2928 24.2755 84.156 24.2175 83.9918 24.2175Z" fill="#08235B"/>
<path d="M85.5266 23.1567V25.6198H85.2737V23.1567H85.5266Z" fill="#08235B"/>
<path d="M86.8044 23.9843C87.0365 23.9843 87.2335 24.0653 87.3955 24.2273C87.5597 24.3872 87.6418 24.5842 87.6418 24.8185C87.6418 25.0506 87.5597 25.2476 87.3955 25.4096C87.2335 25.5716 87.0354 25.6526 86.8011 25.6526C86.569 25.6504 86.372 25.5694 86.21 25.4096C86.048 25.2498 85.9669 25.0527 85.9669 24.8185C85.9669 24.5842 86.048 24.3872 86.21 24.2273C86.372 24.0653 86.5701 23.9843 86.8044 23.9843ZM86.8044 24.2175C86.638 24.2175 86.499 24.2755 86.3873 24.3915C86.2779 24.5076 86.2242 24.651 86.2264 24.8218C86.2264 24.9925 86.2811 25.1348 86.3906 25.2487C86.5001 25.3625 86.6369 25.4195 86.8011 25.4195C86.9653 25.4195 87.1032 25.3625 87.2149 25.2487C87.3266 25.1327 87.3824 24.9903 87.3824 24.8218C87.3824 24.6488 87.3266 24.5054 87.2149 24.3915C87.1054 24.2755 86.9686 24.2175 86.8044 24.2175Z" fill="#08235B"/>
<path d="M89.3836 24.0204H89.6233V25.4654C89.6233 25.7085 89.5521 25.8989 89.4098 26.0369C89.2697 26.177 89.0814 26.2471 88.845 26.2471C88.5494 26.2471 88.2987 26.1442 88.0929 25.9383L88.2407 25.761C88.4334 25.9296 88.6326 26.0139 88.8384 26.0139C89.0048 26.0139 89.1351 25.9679 89.2292 25.876C89.3233 25.784 89.3704 25.6515 89.3704 25.4786V25.3374C89.3047 25.4206 89.2194 25.4862 89.1143 25.5344C89.0092 25.5804 88.8964 25.6034 88.776 25.6034C88.5505 25.6034 88.3633 25.5267 88.2144 25.3735C88.0655 25.2202 87.9911 25.0276 87.9911 24.7955C87.9911 24.5634 88.0655 24.3707 88.2144 24.2175C88.3633 24.062 88.5505 23.9843 88.776 23.9843C88.903 23.9843 89.0201 24.0106 89.1274 24.0631C89.2369 24.1157 89.3223 24.1879 89.3836 24.2799V24.0204ZM88.8154 25.3702C88.9687 25.3702 89.1 25.322 89.2095 25.2257C89.319 25.1272 89.3737 24.9838 89.3737 24.7955C89.3737 24.6072 89.319 24.4649 89.2095 24.3686C89.1 24.2722 88.9687 24.2241 88.8154 24.2241C88.6512 24.2241 88.5155 24.2777 88.4082 24.385C88.3009 24.4923 88.2473 24.6302 88.2473 24.7988C88.2473 24.9674 88.3009 25.1053 88.4082 25.2126C88.5155 25.3177 88.6512 25.3702 88.8154 25.3702Z" fill="#08235B"/>
<path d="M91.3137 24.0204H91.583L90.7948 25.8431C90.6766 26.1124 90.4959 26.2471 90.2529 26.2471C90.1719 26.2471 90.0898 26.2361 90.0066 26.2142V26.0007C90.0898 26.0117 90.1544 26.0172 90.2004 26.0172C90.2836 26.0172 90.3536 25.9986 90.4105 25.9613C90.4697 25.9241 90.52 25.8573 90.5616 25.761L90.647 25.5672L89.9836 24.0204H90.2562L90.7849 25.2947L91.3137 24.0204Z" fill="#08235B"/>
<path d="M93.144 23.4523V25.6198H92.8878V23.4523H93.144Z" fill="#08235B"/>
<path d="M94.4311 23.9843C94.6172 23.9843 94.7628 24.0423 94.8678 24.1584C94.9729 24.2744 95.0255 24.4266 95.0255 24.6149V25.6198H94.7726V24.6444C94.7726 24.5174 94.7365 24.4145 94.6642 24.3357C94.5942 24.2569 94.4978 24.2175 94.3752 24.2175C94.2526 24.2175 94.1519 24.258 94.0731 24.339C93.9943 24.4178 93.9549 24.5196 93.9549 24.6444V25.6198H93.702V24.0204H93.9384V24.1945C94.0567 24.0544 94.2209 23.9843 94.4311 23.9843Z" fill="#08235B"/>
<path d="M96.2912 23.9843C96.4773 23.9843 96.6229 24.0423 96.728 24.1584C96.8331 24.2744 96.8856 24.4266 96.8856 24.6149V25.6198H96.6327V24.6444C96.6327 24.5174 96.5966 24.4145 96.5244 24.3357C96.4543 24.2569 96.358 24.2175 96.2354 24.2175C96.1127 24.2175 96.012 24.258 95.9332 24.339C95.8544 24.4178 95.815 24.5196 95.815 24.6444V25.6198H95.5621V24.0204H95.7986V24.1945C95.9168 24.0544 96.081 23.9843 96.2912 23.9843Z" fill="#08235B"/>
<path d="M98.1447 23.9843C98.3768 23.9843 98.5739 24.0653 98.7359 24.2273C98.9001 24.3872 98.9822 24.5842 98.9822 24.8185C98.9822 25.0506 98.9001 25.2476 98.7359 25.4096C98.5739 25.5716 98.3757 25.6526 98.1415 25.6526C97.9094 25.6504 97.7123 25.5694 97.5503 25.4096C97.3883 25.2498 97.3073 25.0527 97.3073 24.8185C97.3073 24.5842 97.3883 24.3872 97.5503 24.2273C97.7123 24.0653 97.9105 23.9843 98.1447 23.9843ZM98.1447 24.2175C97.9784 24.2175 97.8393 24.2755 97.7277 24.3915C97.6182 24.5076 97.5646 24.651 97.5667 24.8218C97.5667 24.9925 97.6215 25.1348 97.731 25.2487C97.8404 25.3625 97.9773 25.4195 98.1415 25.4195C98.3057 25.4195 98.4436 25.3625 98.5553 25.2487C98.6669 25.1327 98.7227 24.9903 98.7227 24.8218C98.7227 24.6488 98.6669 24.5054 98.5553 24.3915C98.4458 24.2755 98.3089 24.2175 98.1447 24.2175Z" fill="#08235B"/>
<path d="M100.499 24.0204H100.768L100.016 25.6559H99.9241L99.1688 24.0204H99.4381L99.9701 25.2257L100.499 24.0204Z" fill="#08235B"/>
<path d="M101.643 23.9843C101.832 23.9843 101.983 24.0401 102.097 24.1518C102.21 24.2635 102.267 24.4244 102.267 24.6346V25.6198H102.031V25.4129C101.911 25.5749 101.731 25.6559 101.492 25.6559C101.328 25.6559 101.194 25.6154 101.088 25.5344C100.986 25.4534 100.934 25.3439 100.934 25.206C100.934 25.0703 100.987 24.9619 101.092 24.8809C101.197 24.7999 101.336 24.7594 101.509 24.7594H102.015V24.6214C102.015 24.4901 101.98 24.3905 101.909 24.3226C101.842 24.2525 101.747 24.2175 101.627 24.2175C101.447 24.2175 101.292 24.3029 101.161 24.4736L100.993 24.3357C101.14 24.1015 101.357 23.9843 101.643 23.9843ZM101.525 25.4457C101.659 25.4457 101.774 25.403 101.87 25.3177C101.966 25.2323 102.015 25.1283 102.015 25.0057V24.9663H101.538C101.308 24.9663 101.194 25.0418 101.194 25.1929C101.194 25.2739 101.225 25.3363 101.289 25.3801C101.352 25.4238 101.431 25.4457 101.525 25.4457Z" fill="#08235B"/>
<path d="M103.464 25.426C103.525 25.426 103.596 25.4195 103.677 25.4063V25.6198C103.577 25.6439 103.488 25.6559 103.411 25.6559C103.245 25.6559 103.114 25.6132 103.017 25.5278C102.921 25.4425 102.873 25.3122 102.873 25.137V24.247H102.603V24.0204H102.873V23.5837H103.126V24.0204H103.625V24.247H103.126V25.1206C103.126 25.2345 103.154 25.3144 103.211 25.3603C103.27 25.4041 103.354 25.426 103.464 25.426Z" fill="#08235B"/>
<path d="M104.183 23.2257C104.233 23.2257 104.277 23.2443 104.314 23.2815C104.351 23.3166 104.37 23.3592 104.37 23.4096C104.37 23.4621 104.351 23.5059 104.314 23.541C104.279 23.576 104.235 23.5935 104.183 23.5935C104.13 23.5935 104.085 23.576 104.048 23.541C104.011 23.5059 103.992 23.4621 103.992 23.4096C103.992 23.3592 104.011 23.3166 104.048 23.2815C104.085 23.2443 104.13 23.2257 104.183 23.2257ZM104.307 24.0204V25.6198H104.055V24.0204H104.307Z" fill="#08235B"/>
<path d="M105.585 23.9843C105.817 23.9843 106.014 24.0653 106.176 24.2273C106.341 24.3872 106.423 24.5842 106.423 24.8185C106.423 25.0506 106.341 25.2476 106.176 25.4096C106.014 25.5716 105.816 25.6526 105.582 25.6526C105.35 25.6504 105.153 25.5694 104.991 25.4096C104.829 25.2498 104.748 25.0527 104.748 24.8185C104.748 24.5842 104.829 24.3872 104.991 24.2273C105.153 24.0653 105.351 23.9843 105.585 23.9843ZM105.585 24.2175C105.419 24.2175 105.28 24.2755 105.168 24.3915C105.059 24.5076 105.005 24.651 105.007 24.8218C105.007 24.9925 105.062 25.1348 105.171 25.2487C105.281 25.3625 105.418 25.4195 105.582 25.4195C105.746 25.4195 105.884 25.3625 105.996 25.2487C106.107 25.1327 106.163 24.9903 106.163 24.8218C106.163 24.6488 106.107 24.5054 105.996 24.3915C105.886 24.2755 105.749 24.2175 105.585 24.2175Z" fill="#08235B"/>
<path d="M107.596 23.9843C107.782 23.9843 107.928 24.0423 108.033 24.1584C108.138 24.2744 108.191 24.4266 108.191 24.6149V25.6198H107.938V24.6444C107.938 24.5174 107.902 24.4145 107.829 24.3357C107.759 24.2569 107.663 24.2175 107.54 24.2175C107.418 24.2175 107.317 24.258 107.238 24.339C107.159 24.4178 107.12 24.5196 107.12 24.6444V25.6198H106.867V24.0204H107.104V24.1945C107.222 24.0544 107.386 23.9843 107.596 23.9843Z" fill="#08235B"/>
<path d="M111.139 23.4523H111.395V25.6559H111.303L109.924 23.9909V25.6198H109.667V23.4162H109.759L111.139 25.0845V23.4523Z" fill="#08235B"/>
<path d="M113.389 24.7068C113.389 24.7747 113.382 24.8382 113.369 24.8973H112.108C112.123 25.0549 112.185 25.1819 112.292 25.2782C112.401 25.3746 112.535 25.4227 112.693 25.4227C112.874 25.4227 113.037 25.3505 113.182 25.206L113.33 25.3768C113.154 25.5629 112.941 25.6559 112.689 25.6559C112.448 25.6559 112.247 25.576 112.085 25.4162C111.923 25.2564 111.842 25.0582 111.842 24.8218C111.842 24.5875 111.921 24.3894 112.078 24.2273C112.236 24.0653 112.43 23.9843 112.66 23.9843C112.868 23.9843 113.041 24.0522 113.179 24.1879C113.319 24.3237 113.389 24.4966 113.389 24.7068ZM112.988 24.339C112.898 24.2558 112.787 24.2142 112.653 24.2142C112.52 24.2142 112.404 24.2569 112.305 24.3423C112.206 24.4255 112.144 24.536 112.118 24.674H113.129C113.127 24.5317 113.08 24.42 112.988 24.339Z" fill="#08235B"/>
<path d="M114.493 25.426C114.554 25.426 114.626 25.4195 114.707 25.4063V25.6198C114.606 25.6439 114.517 25.6559 114.441 25.6559C114.274 25.6559 114.143 25.6132 114.047 25.5278C113.95 25.4425 113.902 25.3122 113.902 25.137V24.247H113.633V24.0204H113.902V23.5837H114.155V24.0204H114.654V24.247H114.155V25.1206C114.155 25.2345 114.183 25.3144 114.24 25.3603C114.299 25.4041 114.384 25.426 114.493 25.426Z" fill="#08235B"/>
<path d="M117.241 24.0204H117.511L116.838 25.6559H116.746L116.2 24.4474L115.659 25.6559H115.57L114.89 24.0204H115.159L115.619 25.2027L116.154 23.9843H116.25L116.788 25.1961L117.241 24.0204Z" fill="#08235B"/>
<path d="M118.536 23.9843C118.768 23.9843 118.965 24.0653 119.127 24.2273C119.291 24.3872 119.373 24.5842 119.373 24.8185C119.373 25.0506 119.291 25.2476 119.127 25.4096C118.965 25.5716 118.767 25.6526 118.532 25.6526C118.3 25.6504 118.103 25.5694 117.941 25.4096C117.779 25.2498 117.698 25.0527 117.698 24.8185C117.698 24.5842 117.779 24.3872 117.941 24.2273C118.103 24.0653 118.301 23.9843 118.536 23.9843ZM118.536 24.2175C118.369 24.2175 118.23 24.2755 118.118 24.3915C118.009 24.5076 117.955 24.651 117.958 24.8218C117.958 24.9925 118.012 25.1348 118.122 25.2487C118.231 25.3625 118.368 25.4195 118.532 25.4195C118.696 25.4195 118.834 25.3625 118.946 25.2487C119.058 25.1327 119.114 24.9903 119.114 24.8218C119.114 24.6488 119.058 24.5054 118.946 24.3915C118.837 24.2755 118.7 24.2175 118.536 24.2175Z" fill="#08235B"/>
<path d="M120.55 24.0073C120.585 24.0073 120.624 24.0117 120.668 24.0204V24.2438H120.573C120.435 24.2438 120.317 24.2854 120.218 24.3686C120.12 24.4518 120.07 24.5667 120.07 24.7134V25.6198H119.818V24.0204H120.054V24.2503C120.174 24.0883 120.34 24.0073 120.55 24.0073Z" fill="#08235B"/>
<path d="M121.007 25.6198V23.1567H121.26V25.6198H121.007ZM121.592 24.7232L122.347 25.6198H122.022L121.286 24.72L121.953 24.0204H122.285L121.592 24.7232Z" fill="#08235B"/>
<path d="M26.3274 28.8244C26.3274 30.3919 23.9442 30.3919 23.9442 28.8244C23.9442 27.2244 22.8924 25.9659 21.539 24.773C21.763 24.59 21.9885 24.4095 22.2141 24.2285C22.6144 23.9075 23.0068 23.5749 23.3887 23.2323C25.0448 24.7269 26.3274 26.3924 26.3274 28.8244ZM20.8539 13.1325C19.823 13.1325 18.9869 13.9692 18.9869 15C18.9869 16.0313 19.823 16.8675 20.8539 16.8675C21.8852 16.8675 22.7214 16.0313 22.7214 15C22.7214 13.9692 21.8852 13.1325 20.8539 13.1325ZM30.415 3.14017C31.322 3.14017 32.058 3.87564 32.058 4.78317C32.058 5.6907 31.322 6.4267 30.415 6.4267C29.5074 6.4267 28.7714 5.6907 28.7714 4.78317C28.7714 3.87564 29.5074 3.14017 30.415 3.14017ZM34.2717 8.1699C35.4384 8.1699 36.3842 9.11625 36.3842 10.2835C36.3842 11.4507 35.4384 12.397 34.2717 12.397C33.1045 12.397 32.1582 11.4507 32.1582 10.2835C32.1582 9.11625 33.1045 8.1699 34.2717 8.1699ZM40.1329 16.2454C41.0032 16.2454 41.7088 16.9509 41.7088 17.8217C41.7088 18.692 41.0032 19.3976 40.1329 19.3976C39.2616 19.3976 38.5565 18.692 38.5565 17.8217C38.5565 16.9509 39.2616 16.2454 40.1329 16.2454ZM33.7597 16.5884C34.747 16.5884 35.5459 17.3879 35.5459 18.3752C35.5459 19.3614 34.747 20.1609 33.7597 20.1609C32.7735 20.1609 31.9735 19.3614 31.9735 18.3752C31.9735 17.3879 32.7735 16.5884 33.7597 16.5884ZM29.6013 14.0988C30.2864 14.0988 30.842 14.6543 30.842 15.3394C30.842 16.0245 30.2864 16.5801 29.6013 16.5801C28.9157 16.5801 28.3596 16.0245 28.3596 15.3394C28.3596 14.6543 28.9157 14.0988 29.6013 14.0988ZM31.622 24.3785C32.3082 24.3785 32.8632 24.9336 32.8632 25.6192C32.8632 26.3043 32.3082 26.8598 31.622 26.8598C30.9369 26.8598 30.3814 26.3043 30.3814 25.6192C30.3814 24.9336 30.9369 24.3785 31.622 24.3785ZM11.2938 3.14017C10.3868 3.14017 9.6508 3.87564 9.6508 4.78317C9.6508 5.6907 10.3868 6.4267 11.2938 6.4267C12.2013 6.4267 12.9373 5.6907 12.9373 4.78317C12.9373 3.87564 12.2013 3.14017 11.2938 3.14017ZM7.43705 8.1699C6.27037 8.1699 5.32454 9.11625 5.32454 10.2835C5.32454 11.4507 6.27037 12.397 7.43705 12.397C8.60425 12.397 9.55061 11.4507 9.55061 10.2835C9.55061 9.11625 8.60425 8.1699 7.43705 8.1699ZM1.57586 16.2454C0.705568 16.2454 0 16.9509 0 17.8217C0 18.692 0.705568 19.3976 1.57586 19.3976C2.44719 19.3976 3.15224 18.692 3.15224 17.8217C3.15224 16.9509 2.44719 16.2454 1.57586 16.2454ZM7.94905 16.5884C6.96178 16.5884 6.16283 17.3879 6.16283 18.3752C6.16283 19.3614 6.96178 20.1609 7.94905 20.1609C8.93527 20.1609 9.73526 19.3614 9.73526 18.3752C9.73526 17.3879 8.93527 16.5884 7.94905 16.5884ZM12.1074 14.0988C11.4223 14.0988 10.8668 14.6543 10.8668 15.3394C10.8668 16.0245 11.4223 16.5801 12.1074 16.5801C12.7931 16.5801 13.3491 16.0245 13.3491 15.3394C13.3491 14.6543 12.7931 14.0988 12.1074 14.0988ZM15.3814 28.8244C15.3814 30.3919 17.7646 30.3919 17.7646 28.8244C17.7646 26.6673 19.6751 25.1334 21.6612 23.5397C28.2579 18.2451 28.827 13.2064 23.3703 7.95639C22.9496 8.31206 22.5184 8.65724 22.0898 9.00136C21.8978 9.15559 21.7068 9.31297 21.5185 9.47297C26.0855 13.7253 25.636 17.3014 20.1714 21.6874C17.7299 23.6473 15.3814 25.5337 15.3814 28.8244ZM10.0867 24.3785C9.40058 24.3785 8.84556 24.9336 8.84556 25.6192C8.84556 26.3043 9.40058 26.8598 10.0867 26.8598C10.7718 26.8598 11.3274 26.3043 11.3274 25.6192C11.3274 24.9336 10.7718 24.3785 10.0867 24.3785ZM20.1714 5.2275C18.8169 4.03406 17.7646 2.77663 17.7646 1.1756C17.7646 -0.391865 15.3814 -0.391865 15.3814 1.1756C15.3814 3.6081 16.6635 5.27261 18.3185 6.76663C18.7015 6.42303 19.0944 6.09201 19.4941 5.77149L20.1714 5.2275ZM18.339 22.0436C12.8828 16.7936 13.4504 11.7544 20.047 6.46027C22.0331 4.86658 23.9442 3.33322 23.9442 1.1756C23.9442 -0.391865 26.3274 -0.391865 26.3274 1.1756C26.3274 4.46737 23.9788 6.35273 21.5369 8.31258C16.0712 12.6986 15.6232 16.2747 20.1903 20.527C19.9998 20.6886 19.8094 20.846 19.6185 20.9992C19.1909 21.3422 18.7602 21.6874 18.339 22.0436Z" fill="url(#paint0_linear)"/>
<defs>
<linearGradient id="paint0_linear" x1="20.8544" y1="0" x2="20.8544" y2="30" gradientUnits="userSpaceOnUse">
<stop stop-color="#7827ED"/>
<stop offset="0.489583" stop-color="#418DF6" stop-opacity="0.9"/>
<stop offset="1" stop-color="#13D9FE" stop-opacity="0.7"/>
</linearGradient>
</defs>
</svg>
